# xmcd
#
# Track frame offsets: 
#        150
#        21757
#        45378
#        63069
#        87382
#        106902
#        124593
#        148658
#        173230
#        193860
#
# Disc length: 2901 seconds
#
# Revision: 0
# Processed by: cddbd v1.5.2PL0 Copyright (c) Steve Scherf et al.
# Submitted via: ExactAudioCopyFreeDBPlugin 1.0
#
DISCID=800b530a
DTITLE=Nhat Trung - Nua Vang trang
DYEAR=1900
DGENRE=
TTITLE0=Nua vang trang
TTITLE1=Danh xa nhau
TTITLE2=Ngay xua
TTITLE3=Tinh ngang trai
TTITLE4=Long bat chot binh yen
TTITLE5=Nho
TTITLE6=Chi la giac mo
TTITLE7=Co don bien
TTITLE8=Ngay ko ten
TTITLE9=Yeu
EXTD=
EXTT0=
EXTT1=
EXTT2=
EXTT3=
EXTT4=
EXTT5=
EXTT6=
EXTT7=
EXTT8=
EXTT9=
PLAYORDER=
